<svg id="visual" viewBox="0 0 900 600" width="900" height="600" xmlns="http://www.w3.org/2000/svg" xmlns:xlink="http://www.w3.org/1999/xlink" version="1.1"><rect x="0" y="0" width="900" height="600" fill="#001220"></rect><path d="M0 358L21.5 361C43 364 86 370 128.8 381.3C171.7 392.7 214.3 409.3 257.2 419C300 428.7 343 431.3 385.8 427.7C428.7 424 471.3 414 514.2 400.7C557 387.3 600 370.7 642.8 367.8C685.7 365 728.3 376 771.2 387.3C814 398.7 857 410.3 878.5 416.2L900 422L900 601L878.5 601C857 601 814 601 771.2 601C728.3 601 685.7 601 642.8 601C600 601 557 601 514.2 601C471.3 601 428.7 601 385.8 601C343 601 300 601 257.2 601C214.3 601 171.7 601 128.8 601C86 601 43 601 21.5 601L0 601Z" fill="#0066ff"></path><path d="M0 416L21.5 413.5C43 411 86 406 128.8 406.3C171.7 406.7 214.3 412.3 257.2 416.7C300 421 343 424 385.8 424.3C428.7 424.7 471.3 422.3 514.2 430.2C557 438 600 456 642.8 456.2C685.7 456.3 728.3 438.7 771.2 430.5C814 422.3 857 423.7 878.5 424.3L900 425L900 601L878.5 601C857 601 814 601 771.2 601C728.3 601 685.7 601 642.8 601C600 601 557 601 514.2 601C471.3 601 428.7 601 385.8 601C343 601 300 601 257.2 601C214.3 601 171.7 601 128.8 601C86 601 43 601 21.5 601L0 601Z" fill="#b369e2"></path><path d="M0 451L21.5 448.7C43 446.3 86 441.7 128.8 442.7C171.7 443.7 214.3 450.3 257.2 451.8C300 453.3 343 449.7 385.8 455C428.7 460.3 471.3 474.7 514.2 480.3C557 486 600 483 642.8 483.2C685.7 483.3 728.3 486.7 771.2 490C814 493.3 857 496.7 878.5 498.3L900 500L900 601L878.5 601C857 601 814 601 771.2 601C728.3 601 685.7 601 642.8 601C600 601 557 601 514.2 601C471.3 601 428.7 601 385.8 601C343 601 300 601 257.2 601C214.3 601 171.7 601 128.8 601C86 601 43 601 21.5 601L0 601Z" fill="#e57fc8"></path><path d="M0 537L21.5 533.5C43 530 86 523 128.8 522.7C171.7 522.3 214.3 528.7 257.2 527.2C300 525.7 343 516.3 385.8 514.5C428.7 512.7 471.3 518.3 514.2 520.8C557 523.3 600 522.7 642.8 523.2C685.7 523.7 728.3 525.3 771.2 524.2C814 523 857 519 878.5 517L900 515L900 601L878.5 601C857 601 814 601 771.2 601C728.3 601 685.7 601 642.8 601C600 601 557 601 514.2 601C471.3 601 428.7 601 385.8 601C343 601 300 601 257.2 601C214.3 601 171.7 601 128.8 601C86 601 43 601 21.5 601L0 601Z" fill="#f8a3bd"></path><path d="M0 555L21.5 550.8C43 546.7 86 538.3 128.8 539.2C171.7 540 214.3 550 257.2 553.3C300 556.7 343 553.3 385.8 551.3C428.7 549.3 471.3 548.7 514.2 552C557 555.3 600 562.7 642.8 562.8C685.7 563 728.3 556 771.2 555.8C814 555.7 857 562.3 878.5 565.7L900 569L900 601L878.5 601C857 601 814 601 771.2 601C728.3 601 685.7 601 642.8 601C600 601 557 601 514.2 601C471.3 601 428.7 601 385.8 601C343 601 300 601 257.2 601C214.3 601 171.7 601 128.8 601C86 601 43 601 21.5 601L0 601Z" fill="#f7caca"></path></svg>